HIERARCHY
ROOT Hips
{
  OFFSET 0 0 0
  CHANNELS 6 Xposition Yposition Zposition Zrotation Yrotation Xrotation
  JOINT LeftThigh
  {
    OFFSET 8.409438 0 -5.917753
    CHANNELS 3 Zrotation Yrotation Xrotation
    JOINT LeftLeg
    {
      OFFSET 0 0 -42.358652
      CHANNELS 3 Zrotation Yrotation Xrotation
      JOINT LeftFoot
      {
        OFFSET 0 0 -39.357303
        CHANNELS 3 Zrotation Yrotation Xrotation
      }
    }
  }
  JOINT RightThigh
  {
    OFFSET -8.409438 0 -5.917753
    CHANNELS 3 Zrotation Yrotation Xrotation
    JOINT RightLeg
    {
      OFFSET 0 0 -42.358652
      CHANNELS 3 Zrotation Yrotation Xrotation
      JOINT RightFoot
      {
        OFFSET 0 0 -39.357303
        CHANNELS 3 Zrotation Yrotation Xrotation
      }
    }
  }
  JOINT SpineLow
  {
    OFFSET 0 0 4.719101
    CHANNELS 3 Zrotation Yrotation Xrotation
    JOINT SpineMid
    {
      OFFSET 0 0 12.899191
      CHANNELS 3 Zrotation Yrotation Xrotation
      JOINT Chest
      {
        OFFSET 0 0 12.899191
        CHANNELS 3 Zrotation Yrotation Xrotation
        JOINT LeftShoulder
        {
          OFFSET 7.550562 1.41573 9.438202
          CHANNELS 3 Zrotation Yrotation Xrotation
          JOINT LeftArm
          {
            OFFSET 9.155056 0 4.247191
            CHANNELS 3 Zrotation Yrotation Xrotation
            JOINT LeftForearm
            {
              OFFSET 0 0 25.771955
              CHANNELS 3 Zrotation Yrotation Xrotation
              JOINT LeftHand
              {
                OFFSET 0 0 25.197169
                CHANNELS 3 Zrotation Yrotation Xrotation
              }
            }
          }
        }
        JOINT RightShoulder
        {
          OFFSET -7.550562 1.41573 9.438202
          CHANNELS 3 Zrotation Yrotation Xrotation
          JOINT RightArm
          {
            OFFSET -9.155056 0 4.247191
            CHANNELS 3 Zrotation Yrotation Xrotation
            JOINT RightForearm
            {
              OFFSET 0 0 -25.771955
              CHANNELS 3 Zrotation Yrotation Xrotation
              JOINT RightHand
              {
                OFFSET 0 0 -25.197169
                CHANNELS 3 Zrotation Yrotation Xrotation
              }
            }
          }
        }
        JOINT Neck
        {
          OFFSET 0 0 15.101124
          CHANNELS 3 Zrotation Yrotation Xrotation
          JOINT Head
          {
            OFFSET 0 0 11.325843
            CHANNELS 3 Zrotation Yrotation Xrotation
            End Site
            {
              OFFSET 0 0 14.157303
            }
          }
        }
      }
    }
  }
}
MOTION
Frames: 8
Frame Time: 0.0
0.0  93.25843  0.0  -4.42363  6.588001  -119.39495  7.78316  -8.364788  9.508411  -12.021899  -0.476679  13.849549  0.789548  1.150039  2.227631  15.599831  -28.730053  -88.236678  17.045026  34.238547  62.591834  4.709449  3.351707  3.267721  0.635175  -2.889099  2.69508  1.417008  -7.956215  7.322631  1.417008  -7.956215  7.322631  -16.362234  30.869004  10.749204  125.677363  42.211773  -162.837784  -30.387203  18.66724  81.889007  72.458701  -13.866424  -7.218099  6.675342  -8.23992  29.249993  79.804092  63.227671  16.924487  -22.402144  -33.404509  -106.507365  56.109956  0.464367  -11.706801  -5.844209  7.533971  15.617217  -4.573912  5.506204  11.769567  
0.0  93.25843  0.0  -4.542458  6.13739  -119.66859  7.855957  -8.656387  9.663472  -11.976853  -0.410074  14.126377  0.667753  0.994116  2.179531  16.324507  -29.417177  -87.367516  12.916155  32.814777  51.696731  4.12934  2.80259  3.263094  0.623771  -2.971276  2.675932  1.379187  -8.178932  7.271159  1.379187  -8.178931  7.271159  -16.131897  31.355505  11.126962  125.623508  42.480055  -162.971818  -30.801911  18.859855  81.556663  72.425461  -13.535433  -7.218526  6.580766  -8.07906  29.718543  80.135822  63.377005  17.197146  -22.258811  -33.734977  -106.476868  56.013589  0.445129  -11.606793  -5.748769  7.794758  15.906653  -4.512566  5.701845  11.986395  
0.0  93.25843  0.0  -4.499813  5.770192  -119.693503  8.039881  -8.867105  9.598245  -11.812097  -0.283586  14.453949  0.623773  0.791208  2.176624  16.601054  -30.073286  -85.614152  9.037179  30.49304  40.116803  3.771101  2.322241  3.373261  0.637278  -2.94718  2.690023  1.417083  -8.114888  7.308258  1.417083  -8.114888  7.308258  -16.175272  31.258902  11.159817  125.402199  42.742931  -163.228633  -31.457046  18.740854  81.09784  72.069636  -13.224968  -6.843975  6.52566  -8.355475  29.725723  80.25417  63.597546  17.349126  -21.992533  -33.96059  -106.537701  55.911826  0.408329  -11.522999  -5.641699  7.73422  15.964435  -4.431585  5.658658  12.027971  
0.0  93.25843  0.0  -4.396776  5.379373  -119.588401  8.197485  -8.873002  9.403996  -11.8185  -0.142825  14.582177  0.706868  0.530109  2.244673  16.445124  -30.518685  -83.331265  5.349059  27.339939  28.683896  3.902137  2.165153  3.697157  0.644245  -2.902237  2.746399  1.434156  -7.994007  7.462379  1.434156  -7.994008  7.46238  -16.272397  31.009518  10.872017  125.288275  42.901408  -163.401989  -31.700981  18.565772  80.824036  71.833966  -12.908503  -6.677161  6.661888  -8.593754  29.334371  80.089145  63.841225  17.314373  -21.545714  -34.141837  -106.731208  55.861329  0.368874  -11.5036  -5.484301  7.618572  15.787213  -4.308435  5.577405  11.892663  
0.0  93.25843  0.0  -4.342559  4.853288  -119.510911  8.5927  -9.117997  9.221536  -11.583345  -0.037263  14.753785  0.607029  0.226461  2.259684  16.002691  -30.4454  -81.140673  1.698978  23.852094  18.740759  3.675885  2.190784  4.572661  0.649299  -2.866558  2.794742  1.446115  -7.89808  7.594636  1.446115  -7.89808  7.594637  -16.432661  30.74267  10.619375  125.167841  43.084761  -163.664465  -32.484752  18.211033  80.291323  71.473195  -12.59879  -6.091908  6.773422  -8.728522  28.871991  79.84474  63.964389  17.233597  -20.862737  -34.372336  -107.13574  55.87196  0.351942  -11.563098  -5.259426  7.510392  15.661368  -4.135613  5.50297  11.795053  
0.0  93.25843  0.0  -4.239173  5.016216  -119.377355  8.44664  -8.925729  9.001581  -11.156862  -0.010592  14.986228  0.343883  0.047423  2.230044  14.930447  -28.531569  -79.666498  -2.117574  20.553668  11.762926  2.627954  1.76459  3.937065  0.572016  -2.787075  2.800242  1.242638  -7.672412  7.619131  1.242638  -7.672412  7.61913  -16.433765  30.523889  10.654637  124.901753  43.269173  -163.963095  -32.599466  17.918739  79.992923  71.391778  -12.5568  -6.118815  6.952535  -8.914501  28.49565  79.417055  63.916127  17.038717  -20.250492  -34.428604  -107.582506  55.880274  0.283484  -11.658433  -5.121392  7.366868  15.587421  -4.027703  5.399316  11.73733  
0.0  93.25843  0.0  -4.675603  4.454002  -119.644417  8.940445  -9.772396  8.983454  -10.873539  0.061579  15.219962  0.100938  -0.107412  2.218724  14.949486  -25.744293  -79.389796  -6.24274  17.97687  7.504936  2.79892  0.388185  2.758589  0.578169  -2.842955  2.853996  1.246697  -7.826446  7.765897  1.246697  -7.826446  7.765896  -16.512171  30.411731  10.760681  124.173791  43.572822  -164.397114  -32.755501  17.263312  79.756739  71.353869  -12.450876  -6.396983  6.648811  -8.764276  27.802998  79.127662  63.569573  16.791969  -19.341403  -34.581125  -108.286973  55.841504  0.21367  -11.788963  -4.975902  7.249199  15.596021  -3.915876  5.314601  11.741501  
0.0  93.25843  0.0  -4.793385  4.918943  -119.641627  8.957655  -9.852373  8.775788  -10.806934  0.228304  15.461952  -0.12835  -0.165626  2.211605  15.059019  -21.553759  -80.024419  -10.070532  15.867616  5.010821  4.410014  -0.543324  2.635438  0.480424  -2.810674  2.850973  0.982914  -7.726885  7.769148  0.982914  -7.726885  7.769148  -16.733056  30.384624  10.806406  123.63522  43.793823  -164.965578  -32.726396  16.78746  79.695577  71.519566  -12.287638  -6.5871  6.63129  -8.690739  27.338214  78.756315  63.163774  16.565518  -18.745378  -34.494799  -108.894692  55.890208  0.141286  -11.908868  -5.051617  7.169647  15.527268  -3.96984  5.253495  11.690608  
